# xmcd CD database file
#
# Track frame offsets:
#	150
#	23440
#	49948
#
# Disc length: 975 seconds
#
# Revision: 0
# Processed by: cddbd v1.5.1PL2 Copyright (c) Steve Scherf et al.
# Submitted via: CDex 1.51
#
DISCID=1903cd03
DTITLE=杏里 - Field of Lights
DYEAR=2005
DGENRE=JPop
TTITLE0=Field of Lights
TTITLE1=Everything Must Change
TTITLE2=Field of Lights (Insturumental)
EXTD=YEAR: 2005
EXTT0=
EXTT1=
EXTT2=
PLAYORDER=
